<svg width="70" height="70" viewBox="0 0 70 70" fill="none" xmlns="http://www.w3.org/2000/svg">
<path d="M17.4999 20.4167C26.2497 20.4167 35.0002 13.125 35.0002 13.125C35.0002 13.125 43.7499 20.4167 52.5 20.4167V45.2083C46.6666 55.4167 35.0002 56.875 35.0002 56.875C35.0002 56.875 23.3333 55.4167 17.4999 45.2083V20.4167Z" stroke="#FDF6E3" stroke-width="2"/>
<path d="M24.7916 37.9166C23.9787 38.6458 23.3333 45.2083 23.3333 45.2083C23.3333 45.2083 25.6104 48.3845 27.7083 49.5833C30.2297 51.024 35 52.4999 35 52.4999C35 52.4999 39.7703 51.024 42.2916 49.5833C44.3895 48.3845 46.6666 45.2083 46.6666 45.2083C46.6666 45.2083 46.0213 38.6458 45.2083 37.9166C44.3953 37.1874 39.375 36.4583 39.375 36.4583C39.375 36.4583 36.1741 37.9166 35 37.9166C33.8259 37.9166 30.625 36.4583 30.625 36.4583C30.625 36.4583 25.6046 37.1874 24.7916 37.9166Z" fill="#FDF6E3"/>
<circle cx="35" cy="30.6251" r="5.83333" fill="#FDF6E3"/>
</svg>
