<svg width="32" height="32" viewBox="0 0 32 32" fill="none" xmlns="http://www.w3.org/2000/svg">
<path fill-rule="evenodd" clip-rule="evenodd" d="M14.0185 24.7343C13.6105 25.2628 13.0499 25.6667 12.3163 25.6667C11.7217 25.6667 11.2406 25.3883 10.8725 25.0011C10.5154 24.6256 10.2396 24.1251 10.016 23.5909C9.56866 22.5227 9.25367 21.1281 8.98005 19.8014C8.92575 19.5381 8.87308 19.2776 8.82135 19.0218C8.60574 17.9554 8.40629 16.9689 8.17187 16.1929C8.02606 15.7102 7.88267 15.3664 7.74533 15.1554C7.68308 15.0598 7.64033 15.0177 7.61888 15.0008C7.38589 15.0113 7.12302 15.142 6.82701 15.4627C6.51934 15.796 6.24144 16.267 6.00495 16.7795C5.77142 17.2854 5.59392 17.797 5.47433 18.1857C5.41026 18.394 5.29944 18.8158 5.29944 18.8158L5.29918 18.8169C5.1783 18.7889 4.00049 18.5149 4.00049 18.5149C4.00049 18.5149 4.1266 18.032 4.19995 17.7936C4.33036 17.3698 4.52786 16.7981 4.79433 16.2207C5.05784 15.6498 5.40494 15.0375 5.84727 14.5583C6.28816 14.0807 6.89018 13.6667 7.64964 13.6667C8.2379 13.6667 8.62773 14.0669 8.8628 14.4281C9.10515 14.8004 9.29197 15.29 9.44824 15.8073C9.70269 16.6496 9.91843 17.7178 10.1347 18.7887C10.1849 19.0373 10.2351 19.286 10.2859 19.5321C10.5623 20.8721 10.8556 22.1441 11.2458 23.0759C11.4409 23.5417 11.6411 23.8745 11.8387 24.0824C12.0253 24.2786 12.1776 24.3334 12.3163 24.3334C12.4993 24.3334 12.7096 24.2478 12.9631 23.9195C13.2249 23.5803 13.4725 23.0529 13.7033 22.3454C14.164 20.9335 14.4895 19.0302 14.8258 17.0549L14.8323 17.0162C15.1607 15.0868 15.5006 13.09 15.995 11.5746C16.2434 10.8133 16.5479 10.1168 16.9475 9.59919C17.3554 9.07073 17.916 8.66675 18.6496 8.66675C19.8445 8.66675 20.5675 9.44772 21.0079 10.3405C21.4384 11.2131 21.6812 12.3417 21.8867 13.3693C21.91 13.4857 21.9328 13.6009 21.9553 13.7145C22.1409 14.651 22.3068 15.4883 22.5527 16.1242C22.8392 16.8651 23.1005 17.0001 23.3163 17.0001H24.6496V18.3334H23.3163C22.1988 18.3334 21.6268 17.4267 21.3091 16.6051C21.018 15.8523 20.828 14.8894 20.6482 13.9784C20.6251 13.8615 20.6022 13.7455 20.5793 13.6308C20.3681 12.5752 20.1526 11.6204 19.8122 10.9304C19.4818 10.2608 19.1215 10.0001 18.6496 10.0001C18.4666 10.0001 18.2563 10.0857 18.0029 10.414C17.741 10.7532 17.4934 11.2806 17.2626 11.9881C16.802 13.4 16.4764 15.3033 16.1402 17.2786L16.1336 17.3173C15.8052 19.2467 15.4653 21.2435 14.9709 22.7589C14.7226 23.5202 14.4181 24.2167 14.0185 24.7343ZM7.60289 14.9907C7.60289 14.9907 7.60524 14.9912 7.60984 14.9942C7.60516 14.9925 7.60289 14.9907 7.60289 14.9907Z" fill="#FDF6E3" stroke="#FDF6E3"/>
<path fill-rule="evenodd" clip-rule="evenodd" d="M15.9836 22.3685C16.1045 22.0028 16.2165 21.6095 16.3214 21.1962C16.5677 20.8562 16.8011 20.348 17.0194 19.6786C17.4801 18.2668 17.8056 16.3634 18.1418 14.3881L18.1484 14.3494L18.1484 14.3494L18.1484 14.3494C18.2637 13.6724 18.3803 12.9871 18.5045 12.3172C18.8301 13.0027 19.04 13.9354 19.2457 14.9641C19.2686 15.0787 19.2915 15.1947 19.3146 15.3116L19.3146 15.3117L19.3146 15.3117L19.3265 15.3718C19.0345 17.0687 18.72 18.765 18.287 20.0922C18.0387 20.8534 17.7342 21.55 17.3346 22.0676C16.9498 22.5659 16.4294 22.9536 15.7561 22.9961C15.8369 22.7936 15.9125 22.5836 15.9836 22.3685ZM20.1927 10.7303C19.9457 10.3062 19.6256 9.92616 19.2096 9.66994C19.4303 9.42679 19.6181 9.35948 19.7841 9.35948C20.0475 9.35948 20.2772 9.43705 20.4866 9.61603C20.3823 9.96363 20.285 10.3369 20.1927 10.7303ZM19.9459 7.41293C20.0447 7.24013 20.1503 7.0791 20.2636 6.93244C20.6715 6.40399 21.2321 6 21.9657 6C23.1606 6 23.8836 6.78097 24.324 7.6738C24.7545 8.5463 24.9973 9.67492 25.2028 10.7026C25.2259 10.8182 25.2486 10.9326 25.271 11.0456L25.2712 11.0469L25.2714 11.0478C25.457 11.9842 25.6229 12.8216 25.8688 13.4575C26.1553 14.1984 26.4166 14.3333 26.6324 14.3333H27.9657V15.6667H26.6324C25.5149 15.6667 24.9429 14.76 24.6252 13.9383C24.3341 13.1856 24.144 12.2226 23.9643 11.3117L23.9641 11.3111C23.9411 11.1944 23.9182 11.0785 23.8953 10.9641C23.6842 9.90841 23.4687 8.9537 23.1283 8.2637C22.7979 7.59403 22.4375 7.33333 21.9657 7.33333C21.7827 7.33333 21.5724 7.41893 21.319 7.74725C21.2377 7.85246 21.1579 7.97579 21.0795 8.11699C20.7784 7.79042 20.4063 7.53538 19.9459 7.41293ZM9.71248 13.4173C9.65507 13.3025 9.59415 13.1944 9.52926 13.0947C9.36067 12.8356 9.11247 12.5566 8.76855 12.4194C8.90194 12.2158 9.03927 12.026 9.16336 11.8916C9.60425 11.4139 10.2063 11 10.9657 11C11.554 11 11.9438 11.4002 12.1789 11.7613C12.4212 12.1337 12.6081 12.6232 12.7643 13.1405C13.0188 13.9828 13.2345 15.0511 13.4508 16.1219L13.4508 16.122C13.501 16.3706 13.5512 16.6193 13.602 16.8653C13.6295 16.9988 13.6572 17.1317 13.6852 17.2635C13.622 17.6255 13.5602 17.9886 13.4988 18.3494L13.4922 18.3881C13.3746 19.079 13.2583 19.761 13.1371 20.4163C12.79 19.434 12.5282 18.2598 12.2961 17.1347C12.2419 16.8714 12.1892 16.611 12.1375 16.3552L12.1375 16.3552L12.1375 16.3551L12.1374 16.355C11.9218 15.2886 11.7224 14.3021 11.488 13.5261C11.3422 13.0434 11.1988 12.6997 11.0614 12.4887C10.9992 12.393 10.9564 12.3509 10.935 12.334C10.702 12.3445 10.4391 12.4753 10.1431 12.7959C10.0176 12.9319 9.85779 13.1759 9.71248 13.4173ZM10.919 12.324C10.919 12.324 10.9213 12.3245 10.9259 12.3275C10.9213 12.3258 10.919 12.324 10.919 12.324Z" fill="#FDF6E3"/>
</svg>
