<svg width="128" height="128" viewBox="0 0 128 128" fill="none" xmlns="http://www.w3.org/2000/svg">
<g style="mix-blend-mode:hard-light">
<path fill-rule="evenodd" clip-rule="evenodd" d="M127.414 3.41424C128.195 2.6332 128.195 1.36684 127.414 0.585808C126.633 -0.195229 125.367 -0.195229 124.586 0.585808L96.4976 28.674C87.9482 20.8052 76.5352 16 64 16C37.4902 16 16 37.4904 16 64C16 76.5354 20.8057 87.9484 28.6743 96.4976L0.585938 124.586C-0.195312 125.367 -0.195312 126.633 0.585938 127.414C1.3667 128.195 2.6333 128.195 3.41406 127.414L127.414 3.41424ZM31.5049 93.6666L93.6665 31.5053C85.8433 24.3589 75.4307 20 64 20C39.6997 20 20 39.6995 20 64C20 75.4308 24.3589 85.8435 31.5049 93.6666ZM64 108C88.3003 108 108 88.3006 108 64C108 53.5892 104.384 44.0229 98.3398 36.4882L101.184 33.6441C107.944 41.9154 112 52.4842 112 64C112 90.5097 90.5098 112 64 112C52.4839 112 41.9155 107.945 33.644 101.184L36.4883 98.34C44.0229 104.384 53.5894 108 64 108Z" fill="#93A1A1"/>
</g>
</svg>
