 <svg width="16" height="12" viewBox="0 0 16 12" fill="none" xmlns="http://www.w3.org/2000/svg">
    <path d="M8.5 11.5H7.5L7 6L1.5 0.5H14.5L9 6L8.5 11.5Z" fill="white" />
    <path d="M7.5 11.5L7.00205 11.5453L7.04339 12H7.5V11.5ZM8.5 11.5V12H8.95661L8.99795 11.5453L8.5 11.5ZM9 6L8.64645 5.64645C8.56374 5.72916 8.51264 5.83824 8.50205 5.95473L9 6ZM14.5 0.5L14.8536 0.853553L15.7071 0H14.5V0.5ZM1.5 0.5V0H0.292893L1.14645 0.853553L1.5 0.5ZM7 6L7.49795 5.95473C7.48736 5.83824 7.43626 5.72916 7.35355 5.64645L7 6ZM7.5 12H8.5V11H7.5V12ZM8.99795 11.5453L9.49795 6.04527L8.50205 5.95473L8.00205 11.4547L8.99795 11.5453ZM9.35355 6.35355L14.8536 0.853553L14.1464 0.146447L8.64645 5.64645L9.35355 6.35355ZM14.5 0H1.5V1H14.5V0ZM1.14645 0.853553L6.64645 6.35355L7.35355 5.64645L1.85355 0.146447L1.14645 0.853553ZM6.50205 6.04527L7.00205 11.5453L7.99795 11.4547L7.49795 5.95473L6.50205 6.04527Z" fill="white" />
</svg>