<svg width="133" height="132" viewBox="0 0 133 132" fill="none" xmlns="http://www.w3.org/2000/svg">
<path d="M66.9999 2.002C67.5522 2.00628 68.0033 1.56205 68.0076 1.00978C68.0119 0.457513 67.5677 0.00634056 67.0154 0.00205958L66.9999 2.002ZM1.00794 64.9844L2.00782 65.0001L1.00794 64.9844ZM67.0077 130.998L67.0154 131.998L67.0077 130.998ZM131.992 64.9844L132.992 64.9688L131.992 64.9844ZM94.0042 6.15682C93.4857 6.34707 93.2197 6.92161 93.4099 7.44009L96.5103 15.8892C96.7005 16.4077 97.2751 16.6738 97.7935 16.4835C98.312 16.2933 98.5781 15.7187 98.3878 15.2003L95.632 7.68992L103.142 4.93405C103.661 4.7438 103.927 4.16925 103.737 3.65077C103.546 3.13229 102.972 2.86621 102.453 3.05646L94.0042 6.15682ZM67.0154 0.00205958C30.5831 -0.280351 0.577579 28.5123 0.00806689 64.9688L2.00782 65.0001C2.55987 29.6618 31.6459 1.72795 66.9999 2.002L67.0154 0.00205958ZM0.00806689 64.9688C-0.57033 101.994 30.0146 132.285 67.0154 131.998L66.9999 129.998C31.1016 130.276 1.44728 100.882 2.00782 65.0001L0.00806689 64.9688ZM67.0154 131.998C103.731 131.713 133.566 101.709 132.992 64.9688L130.992 65.0001C131.548 100.609 102.625 129.722 66.9999 129.998L67.0154 131.998ZM132.992 64.9688C132.582 38.7308 117.062 16.5125 94.7689 6.18819L93.9285 8.00302C115.552 18.0173 130.595 39.5593 130.992 65.0001L132.992 64.9688Z" fill="#93A1A1"/>
</svg>
