<svg width="32" height="32" viewBox="0 0 32 32" fill="none" xmlns="http://www.w3.org/2000/svg">
<path d="M7.33341 15.9999L6.70872 15.219L5.73263 15.9999L6.70872 16.7808L7.33341 15.9999ZM10.0421 12.5524L6.70872 15.219L7.95811 16.7808L11.2914 14.1141L10.0421 12.5524ZM6.70872 16.7808L10.0421 19.4475L11.2914 17.8857L7.95811 15.219L6.70872 16.7808Z" fill="#FDF6E3"/>
<path d="M12 9L12 5C12 4.44771 12.4477 4 13 4L23.6666 4C24.2189 4 24.6666 4.44771 24.6666 5L24.6666 27C24.6666 27.5523 24.2189 28 23.6666 28L13 28C12.4477 28 12 27.5523 12 27L12 22.6667" stroke="#FDF6E3" stroke-width="2"/>
<path d="M7.33325 16H16.6666" stroke="#FDF6E3" stroke-width="2"/>
</svg>
