<svg width="32" height="32" viewBox="0 0 32 32" fill="none" xmlns="http://www.w3.org/2000/svg">
<path fill-rule="evenodd" clip-rule="evenodd" d="M8.65942 8.08321C8.88509 7.22595 9.66555 6.59375 10.5937 6.59375H23.4063C24.5109 6.59375 25.4063 7.48918 25.4063 8.59375V21.4064C25.4063 22.3344 24.7743 23.1148 23.9172 23.3406C23.9601 23.1776 23.9829 23.0065 23.9829 22.83V10.0174C23.9829 9.46979 23.7629 8.97359 23.4063 8.61242V8.59375H23.3877C23.0265 8.23736 22.5304 8.01738 21.9829 8.01738H9.17027C8.99371 8.01738 8.82249 8.04026 8.65942 8.08321Z" fill="#FDF6E3"/>
<path fill-rule="evenodd" clip-rule="evenodd" d="M12.0122 5.36094C12.2573 4.53355 13.0232 3.92993 13.9301 3.92993H26.0701C27.1747 3.92993 28.0701 4.82536 28.0701 5.92993V18.0699C28.0701 18.9768 27.4666 19.7426 26.6392 19.9878C26.6927 19.8074 26.7214 19.6165 26.7214 19.4188V7.27879C26.7214 6.17422 25.8259 5.27879 24.7214 5.27879H12.5814C12.3836 5.27879 12.1926 5.30749 12.0122 5.36094Z" fill="#FDF6E3"/>
<rect x="5" y="10.3333" width="16.6667" height="16.6667" stroke="#FDF6E3" stroke-width="2" stroke-linejoin="round"/>
</svg>
