<svg width="24" height="24" viewBox="0 0 24 24" fill="none" xmlns="http://www.w3.org/2000/svg">
<path d="M3.7541 22.8448L21.0656 5.53329L18.3115 2.77919L1 20.0907V22.8448H3.7541Z" fill="#93A1A1"/>
<path d="M23.0159 3.64754L23.4093 3.2541L20.6552 0.500003L20.2618 0.893446L23.0159 3.64754Z" fill="#93A1A1"/>
<path d="M21.0656 5.53329L21.4191 5.88684L21.7727 5.53329L21.4191 5.17973L21.0656 5.53329ZM3.7541 22.8448V23.3448H3.96121L4.10765 23.1983L3.7541 22.8448ZM18.3115 2.77919L18.665 2.42564L18.3115 2.07208L17.9579 2.42564L18.3115 2.77919ZM1 20.0907L0.646447 19.7371L0.5 19.8836V20.0907H1ZM23.4093 3.2541L23.7629 3.60766C23.9581 3.41239 23.9581 3.09581 23.7629 2.90055L23.4093 3.2541ZM23.0159 3.64754L22.6623 4.0011L23.0159 4.35465L23.3694 4.0011L23.0159 3.64754ZM20.6552 0.500003L21.0088 0.14645C20.915 0.0526818 20.7878 3.34128e-06 20.6552 3.37618e-06C20.5226 3.41108e-06 20.3954 0.0526819 20.3017 0.14645L20.6552 0.500003ZM20.2618 0.893446L19.9082 0.539893L19.5547 0.893446L19.9082 1.247L20.2618 0.893446ZM1 22.8448H0.5V23.3448H1V22.8448ZM20.712 5.17973L3.40054 22.4912L4.10765 23.1983L21.4191 5.88684L20.712 5.17973ZM17.9579 2.42564L0.646447 19.7371L1.35355 20.4442L18.665 3.13274L17.9579 2.42564ZM23.0558 2.90055L22.6623 3.29399L23.3694 4.0011L23.7629 3.60766L23.0558 2.90055ZM20.3017 0.14645L19.9082 0.539893L20.6153 1.247L21.0088 0.853557L20.3017 0.14645ZM0.5 20.0907V22.8448H1.5V20.0907H0.5ZM1 23.3448H3.7541V22.3448H1V23.3448ZM20.3017 0.853557L23.0558 3.60766L23.7629 2.90055L21.0088 0.14645L20.3017 0.853557ZM17.9579 3.13274L20.712 5.88684L21.4191 5.17973L18.665 2.42564L17.9579 3.13274ZM23.3694 3.29399L20.6153 0.539893L19.9082 1.247L22.6623 4.0011L23.3694 3.29399Z" fill="#93A1A1"/>
</svg>
