<svg width="17" height="17" viewBox="0 0 17 17" fill="none" xmlns="http://www.w3.org/2000/svg">
<path d="M14.1639 15.8965L2.62295 4.35552L4.45902 2.51946L16 14.0604V15.8965H14.1639Z" fill="#93A1A1"/>
<path d="M1.32274 3.09836L1.06045 2.83607L2.89651 1L3.15881 1.2623L1.32274 3.09836Z" fill="#93A1A1"/>
<path d="M2.62295 4.35552L2.2694 4.70908L1.91584 4.35552L2.2694 4.00197L2.62295 4.35552ZM14.1639 15.8965V16.3965H13.9568L13.8104 16.2501L14.1639 15.8965ZM4.45902 2.51946L4.10546 2.16591L4.45902 1.81235L4.81257 2.16591L4.45902 2.51946ZM16 14.0604L16.3536 13.7069L16.5 13.8533V14.0604H16ZM1.06045 2.83607L0.706894 3.18962C0.511632 2.99436 0.511632 2.67778 0.706894 2.48251L1.06045 2.83607ZM1.32274 3.09836L1.6763 3.45192L1.32274 3.80547L0.969189 3.45192L1.32274 3.09836ZM2.89651 1L2.54296 0.646449C2.63673 0.552681 2.7639 0.500002 2.89651 0.500002C3.02912 0.500002 3.1563 0.552681 3.25007 0.646449L2.89651 1ZM3.15881 1.2623L3.51236 0.908744L3.86591 1.2623L3.51236 1.61585L3.15881 1.2623ZM16 15.8965H16.5V16.3965H16V15.8965ZM2.97651 4.00197L14.5175 15.543L13.8104 16.2501L2.2694 4.70908L2.97651 4.00197ZM4.81257 2.16591L16.3536 13.7069L15.6464 14.414L4.10546 2.87301L4.81257 2.16591ZM1.414 2.48251L1.6763 2.74481L0.969189 3.45192L0.706894 3.18962L1.414 2.48251ZM3.25007 0.646449L3.51236 0.908744L2.80525 1.61585L2.54296 1.35356L3.25007 0.646449ZM16.5 14.0604V15.8965H15.5V14.0604H16.5ZM16 16.3965H14.1639V15.3965H16V16.3965ZM3.25007 1.35356L1.414 3.18962L0.706894 2.48251L2.54296 0.646449L3.25007 1.35356ZM4.81257 2.87301L2.97651 4.70908L2.2694 4.00197L4.10546 2.16591L4.81257 2.87301ZM0.969189 2.74481L2.80525 0.908744L3.51236 1.61585L1.6763 3.45192L0.969189 2.74481Z" fill="#93A1A1"/>
</svg>
