<svg width="48" height="48" viewBox="0 0 48 48" fill="none" xmlns="http://www.w3.org/2000/svg">
<path d="M22.2969 29.5938C22.3073 28.0729 22.4323 27.026 22.6719 26.4531C22.9219 25.8698 23.5781 25.099 24.6406 24.1406C25.6719 22.9219 26.4062 21.9844 26.8438 21.3281C27.2812 20.6719 27.5 19.8802 27.5 18.9531C27.5 17.849 27.2031 17 26.6094 16.4062C26.026 15.8125 25.1875 15.5156 24.0938 15.5156C23.1458 15.5156 22.3385 15.776 21.6719 16.2969C21.0156 16.8073 20.6875 17.5625 20.6875 18.5625H17.75L17.7031 18.4688C17.6719 16.7917 18.2604 15.4479 19.4688 14.4375C20.6771 13.4271 22.2188 12.9219 24.0938 12.9219C26.1458 12.9219 27.7396 13.4479 28.875 14.5C30.0104 15.5417 30.5781 17 30.5781 18.875C30.5781 20.2188 30.2083 21.4479 29.4688 22.5625C28.7396 23.6771 27.7708 24.8177 26.5625 25.9844C26.0104 26.5469 25.6719 27.0521 25.5469 27.5C25.4323 27.9479 25.375 28.6458 25.375 29.5938H22.2969ZM25.4688 36H22.2656V32.75H25.4688V36Z" fill="#839496"/>
<circle cx="24.5" cy="24.5" r="16.5" stroke="#839496" stroke-width="2"/>
</svg>
