<svg width="273" height="261" viewBox="0 0 273 261" fill="none" xmlns="http://www.w3.org/2000/svg">
<path d="M50.1851 124.833C36.4017 126.167 24.6191 119.72 15.9489 107.493C-0.0576063 85.7057 -5.1708 61.9178 5.94484 36.129C6.61177 33.9059 7.72334 31.6827 9.05722 29.6819C22.396 14.1197 37.9579 1.66993 59.0776 0.113711C75.0841 -0.997873 88.8675 6.11626 98.8716 18.1214C117.324 40.3531 119.547 61.6955 107.542 85.2611C100.872 98.8224 90.4237 110.383 77.3072 118.164C69.304 123.277 59.7445 125.723 50.1851 124.833ZM49.2958 116.608C55.5206 114.607 62.19 113.273 67.9701 110.605C80.1973 104.825 89.3121 95.043 96.4261 83.7048C107.097 66.1418 106.875 48.5788 97.093 30.5711C84.8658 8.33943 62.6346 1.66993 40.4033 13.4527C38.1802 14.5643 36.1794 15.8982 34.1786 17.2321C15.5043 29.6818 6.83409 47.2449 9.27953 69.4766C10.8357 82.1486 15.9489 94.1537 23.9522 103.936C29.7323 112.161 39.2917 116.83 49.2958 116.608Z" transform="translate(86.7593 67.026)" fill="#586E75"/>
<path d="M0 0C18.8966 5.55792 36.9039 9.33731 51.3542 21.7871C53.1327 23.3433 54.2443 25.3441 54.9112 27.5673C55.1336 28.4566 53.3551 30.2351 52.0212 31.1244C50.9096 31.569 49.5757 31.3467 48.6865 30.6797C38.4601 20.6755 25.3436 16.6738 12.4495 11.7828C8.67019 10.2266 4.89088 8.22573 1.55619 6.00256C0.444625 5.55792 0.666938 3.11244 0 0Z" transform="translate(0 63.3603)" fill="#586E75"/>
<path d="M0 45.3526C0.666938 42.6848 1.77849 39.7947 2.89005 37.3492C9.11481 26.4557 15.7842 15.7845 22.2313 4.89097C23.1205 3.33475 24.2321 2.00085 25.7883 0.889268C27.3445 3.31278e-07 29.123 -0.222317 30.6791 0.222317C31.7907 0.66695 32.4576 2.89012 32.68 4.66865C32.68 5.78024 32.2353 6.89182 31.3461 8.0034C24.0098 20.2308 16.6734 32.6806 9.11482 44.908C7.114 48.2428 4.00163 49.5767 0 45.3526Z" transform="translate(182.296)" fill="#586E75"/>
<path d="M0 32.3097C2.22313 27.8634 2.89006 24.5287 4.89087 23.1948C15.3396 15.1914 26.2329 7.63258 36.9039 0.296125C38.2378 -0.593142 40.9055 0.740759 44.9072 1.40771C40.9055 6.07636 38.6824 9.41112 35.57 12.0789C27.1221 18.7484 18.6743 25.4179 9.78176 31.6428C8.00326 32.5321 4.66857 31.8651 0 32.3097Z" transform="translate(206.973 34.163)" fill="#586E75"/>
<path d="M30.4801 3.02973C22.6991 16.3687 16.2521 31.264 6.248 43.7137C5.35875 44.8253 3.13562 44.603 1.57943 45.0476C1.13481 43.0468 -0.643691 40.1567 0.24556 38.8228C7.35957 26.373 14.9182 14.1456 22.4768 2.14048C24.2553 -0.305009 27.1454 -1.41661 30.4801 3.02973Z" transform="translate(83.3447 215.952)" fill="#586E75"/>
<path d="M0 24.8995C10.671 16.0068 19.3412 8.67035 28.0114 1.55621C29.5676 0.666944 31.1238 0 32.9023 0C34.0138 0 35.1254 0.44463 36.0147 1.3339C36.6816 2.22317 36.6816 3.55707 36.237 4.44634C27.5668 13.5613 18.8966 22.454 7.55863 27.7896C6.44707 28.6789 4.44625 26.9003 0 24.8995Z" transform="translate(24.8994 168.516)" fill="#586E75"/>
<path d="M1.42337 0C3.20187 0.222317 4.98037 -0.222319 5.425 0.444631C13.4283 10.8935 21.6538 21.3424 29.4348 32.0136C29.8794 33.5698 29.4348 35.3484 28.3232 36.46C26.767 37.3492 24.9885 37.3492 23.4323 36.2376C15.4291 25.7888 7.64812 15.1175 0.0894874 4.22402C-0.355138 3.55707 0.978743 1.55622 1.42337 0Z" transform="translate(65.4932 33.3475)" fill="#586E75"/>
<path d="M0.0167577 11.7828C9.79852 3.77938 22.248 2.22317 34.4752 0C36.2537 0 38.0322 0.444627 39.3661 1.55621C40.033 2.00084 39.8107 3.55706 40.2554 5.11328C38.9215 6.22486 37.5876 7.11414 36.0314 7.78109C25.805 11.1158 15.5787 14.2283 5.35227 17.1184C1.79526 18.23 -0.205555 16.2291 0.0167577 11.7828Z" transform="translate(232.745 113.826)" fill="#586E75"/>
<path d="M5.99663 0C8.21976 2.6678 10.8875 4.44634 10.8875 6.00256C10.4429 15.5622 9.33133 25.1218 7.99745 34.6814C7.77514 36.46 5.10739 37.5715 1.99501 40.684C-0.672738 25.7888 -1.78431 13.339 5.99663 0Z" transform="translate(159.404 1.7785)" fill="#586E75"/>
<path d="M0 1.4977C1.55619 1.05307 3.77931 -0.503145 4.66856 0.163805C13.1164 5.72173 21.5643 11.2796 29.7899 17.2822C30.6791 18.6161 30.6792 20.3946 30.0122 21.7285C28.9007 22.8401 27.1221 23.2848 25.3436 22.8401C16.8958 17.0599 8.67019 11.2796 0.666928 5.05477C-1.02032e-05 4.61014 0.222313 3.05392 0 1.4977Z" transform="translate(218.978 175.911)" fill="#586E75"/>
<path d="M0.919913 0C2.69841 0.222317 4.69924 -0.222324 4.92155 0.444627C10.4794 8.89267 13.8141 18.6746 14.7033 28.9012C14.9256 30.0128 12.9248 31.7913 11.8132 32.6806C10.7017 33.1252 9.59011 32.6806 8.70086 32.0136C3.14304 22.0094 -2.19246 11.7828 0.919913 0Z" transform="translate(185.378 212.757)" fill="#586E75"/>
<path d="M2.16166 0C4.16247 0.222317 6.83021 3.37903e-06 7.27484 0.889271C11.2765 8.67036 11.4988 17.1184 10.3872 25.3441C10.1649 26.678 7.71947 28.9012 6.83022 28.4565C4.82941 28.0119 1.93933 26.4557 1.71702 24.8995C0.160833 16.8961 -1.39535 8.67036 2.16166 0Z" transform="translate(134.561 219.427)" fill="#586E75"/>
<path d="M0 10.2266C11.7826 4.44633 21.7866 0.666951 32.4577 0C33.5692 0 35.1254 1.77854 35.7923 2.89013C36.237 3.55708 35.3477 5.55792 34.6808 5.78023C25.7883 10.6712 16.4511 14.2283 6.00244 14.4506C4.89088 14.6729 3.557 12.6721 0 10.2266Z" transform="translate(9.78174 127.388)" fill="#586E75"/>
<path d="M4.44625 0C12.0049 9.55963 10.8933 19.7862 10.8933 29.7905C10.8933 30.6797 9.55944 31.7913 8.44788 32.0136C7.33632 32.2359 6.22475 31.7913 5.3355 31.1244C4.22394 30.4574 3.557 29.5681 3.11237 28.4566C1.7785 20.8978 0.666938 13.339 0 5.55792C0 4.0017 2.66775 2.22317 4.44625 0Z" transform="translate(118.048 3.55701)" fill="#586E75"/>
<path d="M20.3959 1.85718C19.9513 3.4134 20.1736 5.19193 19.5067 5.63656C14.8381 8.97132 9.94723 12.0838 4.83404 14.9739C3.94479 15.4185 1.27704 14.3069 0.387787 12.973C-0.279151 11.4168 -0.0568369 9.86059 0.832414 8.52669C5.72329 5.41425 10.8365 2.52413 15.9497 0.0786418C17.2836 -0.365992 19.0621 1.19023 20.3959 1.85718Z" transform="translate(66.3062 195.56)" fill="#586E75"/>
<path d="M22.4536 2.40338C14.4503 7.29435 8.89251 11.5184 0 9.07289C11.1156 -1.37601 11.5603 -1.59832 22.4536 2.40338Z" transform="translate(218.312 90.0804)" fill="#586E75"/>
<path d="M15.9282 11.1158L25.043 0C30.6008 2.00085 30.8231 5.55792 29.2669 9.11499C25.4876 17.563 15.7059 21.1201 8.36954 16.2291C5.03485 14.006 2.5894 10.2266 0.143965 7.11415C-0.300661 6.66952 0.366281 4.66866 1.03322 4.00171C1.70016 3.33476 3.47866 2.66781 4.1456 3.11244C7.92492 5.33561 11.7042 8.00341 15.9282 11.1158Z" transform="translate(128.353 146.507)" fill="#586E75"/>
<path d="M11.338 5.86649L2.22313 16.3154C1.11156 14.9815 0 13.8699 0 13.2029C0.666938 10.3128 1.7785 7.64503 3.33469 5.19955C8.89251 -1.91459 16.6735 -1.69228 22.8982 5.64417C23.5652 6.97807 23.3428 8.75661 22.6759 10.0905C21.342 10.9798 19.7858 11.2021 18.2297 10.5351C15.7842 9.20124 13.5611 7.64502 11.338 5.86649Z" transform="translate(114.046 111.739)" fill="#586E75"/>
<path d="M0 9.2985C0.444625 1.96204 6.22476 1.07278 11.1156 0.183509C15.1173 -0.705758 18.0073 1.73973 19.3412 5.2968C20.0081 6.85302 19.7858 8.63155 19.1189 10.1878C18.452 11.2994 15.1173 11.9663 14.8949 11.5217C10.671 5.74143 5.11319 11.077 0 9.2985Z" transform="translate(153.396 110.753)" fill="#586E75"/>
</svg>
