<svg width="32" height="32" viewBox="0 0 32 32" fill="none" xmlns="http://www.w3.org/2000/svg">
<path d="M11.3333 16.5218L15.3333 20.0001L25.9999 6.66675" stroke="#FDF6E3" stroke-width="2"/>
<path d="M15.3333 7.33341L15.3333 8.33341L15.3333 7.33341ZM18.6666 7.33341L19.3737 8.04052L20.0808 7.33341L19.3737 6.62631L18.6666 7.33341ZM24.3333 17.3334C24.3333 22.304 20.3038 26.3334 15.3333 26.3334V28.3334C21.4084 28.3334 26.3333 23.4085 26.3333 17.3334H24.3333ZM15.3333 26.3334C10.3627 26.3334 6.33325 22.304 6.33325 17.3334H4.33325C4.33325 23.4085 9.25812 28.3334 15.3333 28.3334V26.3334ZM6.33325 17.3334C6.33325 12.3629 10.3627 8.33344 15.3333 8.33341L15.3332 6.33341C9.25812 6.33345 4.33325 11.2583 4.33325 17.3334H6.33325ZM15.3333 8.33341C15.9999 8.33341 16.8333 8.33341 17.4999 8.33341C17.8333 8.33341 18.1249 8.33341 18.3332 8.33341C18.4374 8.33341 18.5207 8.33341 18.578 8.33341C18.6067 8.33341 18.6288 8.33341 18.6438 8.33341C18.6513 8.33341 18.657 8.33341 18.6608 8.33341C18.6627 8.33341 18.6642 8.33341 18.6651 8.33341C18.6656 8.33341 18.666 8.33341 18.6662 8.33341C18.6663 8.33341 18.6664 8.33341 18.6665 8.33341C18.6665 8.33341 18.6665 8.33341 18.6666 8.33341C18.6666 8.33341 18.6666 8.33341 18.6666 7.33341C18.6666 6.33341 18.6666 6.33341 18.6666 6.33341C18.6666 6.33341 18.6665 6.33341 18.6665 6.33341C18.6664 6.33341 18.6663 6.33341 18.6662 6.33341C18.666 6.33341 18.6656 6.33341 18.6651 6.33341C18.6642 6.33341 18.6627 6.33341 18.6608 6.33341C18.657 6.33341 18.6513 6.33341 18.6438 6.33341C18.6288 6.33341 18.6067 6.33341 18.578 6.33341C18.5208 6.33341 18.4374 6.33341 18.3333 6.33341C18.1249 6.33341 17.8333 6.33341 17.4999 6.33341C16.8333 6.33341 15.9999 6.33341 15.3332 6.33341L15.3333 8.33341ZM19.3737 6.62631L16.707 3.95964L15.2928 5.37385L17.9595 8.04052L19.3737 6.62631ZM17.9595 6.62631L15.2928 9.29297L16.707 10.7072L19.3737 8.04052L17.9595 6.62631Z" fill="#FDF6E3"/>
</svg>
